# xmcd CD database file
#
# Track frame offsets:
#	150
#	23171
#	45224
#	75069
#	112092
#	147617
#	164794
#	190462
#	224437
#	244978
#	269153
#
# Disc length: 3936 seconds
#
# Revision: 0
# Processed by: cddbd v1.5.1PL2 Copyright (c) Steve Scherf et al.
# Submitted via: CDex 1.51
#
DISCID=a50f5e0b
DTITLE=Percy Hill - After All
DYEAR=1900
DGENRE=Jazz
TTITLE0=1/ Awaiting Our Return
TTITLE1=2/St. Lucilia
TTITLE2=3/ Shining on creation
TTITLE3=4/ Spirit of Air
TTITLE4=5/ door #5
TTITLE5=6/ Lap of Luxury
TTITLE6=7/ Brings You Back Again
TTITLE7=8/ After All
TTITLE8=9/ Dreamer
TTITLE9=10/ Slave
TTITLE10=11/ Beneath the Cover
EXTD=
EXTT0=
EXTT1=
EXTT2=
EXTT3=
EXTT4=
EXTT5=
EXTT6=
EXTT7=
EXTT8=
EXTT9=
EXTT10=
PLAYORDER=
